<?xml version="1.0" encoding="UTF-8"?>
<svg width="40px" height="40px" viewBox="0 0 40 40" version="1.1" xmlns="http://www.w3.org/2000/svg" xmlns:xlink="http://www.w3.org/1999/xlink">
    <title>使用数据集</title>
    <g id="定稿" stroke="none" stroke-width="1" fill="none" fill-rule="evenodd">
        <g id="数据处理-数据清洗" transform="translate(-1124, -179)">
            <g id="Group-5" transform="translate(190, 158)">
                <g id="Group-3-Copy-3" transform="translate(934, 20)">
                    <g id="使用数据集" transform="translate(0, 1)">
                        <rect id="矩形" x="0" y="0" width="40" height="40"></rect>
                        <g id="Group" transform="translate(5, 5)">
                            <path d="M7.78225708,1.60224952 C14.3820389,0.542392081 18.7420458,0.542392081 20.8622779,1.60224952 C21.4031525,3.59898758 22.6272533,17.6001216 20.8605629,23.154038 C17.3352348,23.1601717 12.9757996,22.9428062 7.78225708,22.5019417 L7.78225708,1.60224952 Z" id="Path-7" fill="#CCD9EC"></path>
                            <path d="M26.5277424,22.5472345 C27.7802415,21.8833599 29.4962403,20.7059858 28.431616,19.8417364 C28.0308663,19.5036116 20.6032465,16.5224887 20.0771218,16.3346138 C20.0228719,16.3148638 19.9652469,16.3059888 19.9074969,16.3084888 C19.849747,16.3111138 19.793122,16.3249888 19.7408721,16.3493638 C19.6884971,16.3738638 19.6414971,16.4083637 19.6024971,16.4508637 C19.5634972,16.4934887 19.5332472,16.5433636 19.5134972,16.5976136 C19.4937472,16.6518636 19.4848722,16.7096135 19.4873722,16.7672385 C19.4899972,16.8249884 19.5038722,16.8816134 19.5282472,16.9339884 C19.5527472,16.9862383 19.5871222,17.0332383 19.6297471,17.0723633 C19.6723721,17.1113632 19.7222471,17.1414882 19.776497,17.1612382 C20.5279965,17.449363 26.3022425,20.0672362 27.2918668,20.5431109 C27.064367,20.7493607 26.8118672,20.9261106 26.5402423,21.0692355 C25.2877432,21.795735 24.9746184,21.73311 24.8618685,22.1964847 C24.7491186,22.6599844 25.0998683,22.7101094 27.2918668,25.9542321 C27.5836166,26.3528568 27.8472414,26.7713566 28.0808663,27.2067313 C27.3932418,27.7299809 26.6338673,28.1517306 25.8263678,28.4592304 C25.5191181,28.0581057 25.2347432,27.639981 24.9746184,27.2067313 C23.2586196,24.4511082 23.2711196,23.7622336 22.4694952,24.1254834 C21.9934955,24.3258583 21.1042461,25.6284824 20.2774967,26.179607 C20.1898717,25.9291071 20.0646218,25.6661073 20.0521218,25.5658574 C19.6587471,23.214109 19.3869973,20.8437357 19.2378724,18.4639873 C18.9873726,18.1132376 18.5866229,18.3387374 18.5239979,18.6768622 C18.5317479,21.0469855 18.6823728,23.4143589 18.9748726,25.7663573 C19.0499975,26.2673569 18.9748726,27.1064813 19.4007473,27.4948561 C20.1021218,28.1962306 21.9058706,26.4677318 22.5571201,25.7913572 C23.2084947,27.0438564 24.5236187,29.6241046 25.4254931,29.9623544 C26.3273675,30.3004791 29.0203656,28.2713555 29.4211153,27.4572311 C29.8219901,26.6431066 29.5088653,26.3048569 26.5277424,22.5472345 L26.5277424,22.5472345 Z" id="Vector" fill="#000000"></path>
                            <path d="M3.10508357,19.6538615 C1.17615991,19.5411116 1.35152229,19.5787365 1.35152229,19.4158617 C1.35152229,18.5892372 1.50182218,10.7482427 1.48929719,8.79426901 C1.48929719,6.03865842 1.38909726,3.68387255 1.40162225,3.08264797 C2.6358589,2.79707316 3.89367053,2.62517328 5.15926965,2.56909832 C5.21521961,2.57927331 5.27273207,2.57702332 5.32773203,2.56252333 C5.3827195,2.54802334 5.43385696,2.52162335 5.47751943,2.48518588 C5.5211819,2.4487359 5.55630688,2.40314844 5.58041936,2.35163597 C5.60451934,2.30012351 5.61701933,2.24394855 5.61701933,2.18707359 C5.61701933,2.13019863 5.60451934,2.07402366 5.58041936,2.0225112 C5.55630688,1.97098624 5.5211819,1.92539877 5.47751943,1.88896129 C5.43385696,1.85252382 5.3827195,1.82611134 5.32773203,1.81161135 C5.27273207,1.79711136 5.21521961,1.79487386 5.15926965,1.80504885 C3.90672052,1.80504885 1.30142232,1.80504885 0.675142757,2.306061 C0.559167837,2.38239845 0.474657896,2.49804837 0.437159172,2.63172328 C0.349480482,2.75698569 0.174123104,5.01157163 0.0864456646,7.91748212 C-0.05133549,11.8254419 -0.013758016,15.9087391 0.124021889,19.2656118 C0.124021889,19.6663615 0.124021889,20.2174861 0.42463293,20.417861 C0.975755049,20.7937357 4.42027016,20.7686107 5.72291926,20.6934858 C6.0986815,20.6934858 6.44939376,19.6914865 5.61018184,19.5536116 C4.78065741,19.6713615 3.94135799,19.7049865 3.10508357,19.6538615 Z" id="Vector_2" fill="#000000"></path>
                            <path d="M20.5531215,0.2894349 C18.423748,-0.0738037236 9.2801543,-0.199058512 7.47648055,0.539944726 C7.34464314,0.588858443 7.22490572,0.665658389 7.12546829,0.76509707 C7.02603086,0.864535752 6.94923091,0.984270669 6.90030595,1.11611808 C6.5370687,2.21836106 6.81263101,22.6974844 6.83768099,22.7476093 C6.88031846,22.8459843 6.94385592,22.9339842 7.02388086,23.0053592 C7.1039058,23.0767341 7.19851824,23.1298591 7.30113067,23.1609841 C8.5536798,23.6118587 14.2402509,23.4364839 15.555375,23.3738589 C15.6717499,23.3738589 15.7832498,23.3277339 15.8653747,23.245484 C15.9476247,23.1632341 15.9938746,23.0517341 15.9938746,22.9354842 C15.9938746,22.8192343 15.9476247,22.7077344 15.8653747,22.6254844 C15.7832498,22.5433595 15.6717499,22.4971095 15.555375,22.4971095 C14.4657507,22.4971095 8.86681708,22.4971095 7.95245522,22.1088598 C7.95245522,22.1088598 8.17791756,2.06804867 8.17791756,1.79249886 C8.48486735,1.67737394 8.79859213,1.58116151 9.11732941,1.50441156 C12.8525018,1.00042816 16.6267492,0.849455762 20.3902466,1.05349062 C20.4916215,1.07508311 20.5973715,1.05554187 20.6842464,0.999166908 C20.7711213,0.942790697 20.8321213,0.854198259 20.8537463,0.752878329 C20.8752463,0.651558399 20.8557463,0.545810972 20.7993713,0.458898533 C20.7429964,0.371986093 20.6543714,0.311028635 20.5531215,0.2894349 Z" id="Vector_3" fill="#000000"></path>
                            <path d="M20.8912463,8.40598178 C20.9538712,9.73368086 21.1292461,11.1615924 21.241996,12.6897413 C21.241996,12.7927412 21.282871,12.8914912 21.3557459,12.9642411 C21.4284959,13.0371161 21.5273708,13.077991 21.6302457,13.077991 C21.7332457,13.077991 21.8319956,13.0371161 21.9048706,12.9642411 C21.9776205,12.8914912 22.0186205,12.7927412 22.0186205,12.6897413 C22.1313704,11.3620047 22.2816203,10.1094556 22.3317453,8.93205641 C22.4156202,6.54210807 22.2222453,4.15048473 21.7554957,1.80504885 C21.6986207,1.71567391 21.6112458,1.64996146 21.5094958,1.62006148 C21.4078709,1.5901615 21.298746,1.59809899 21.202496,1.64241146 C21.1062461,1.68672393 21.0292462,1.76441138 20.9858712,1.86109881 C20.9424962,1.95777374 20.9356212,2.06691117 20.9664962,2.1682861 C21.0164962,2.40627343 20.7784963,5.82573357 20.8912463,8.40598178 L20.8912463,8.40598178 Z" id="Vector_4" fill="#000000"></path>
                            <path d="M18.6241228,4.34762209 C15.9566247,3.89010991 13.2232516,3.98818484 10.5953284,4.63570939 C10.5392659,4.63129689 10.4829035,4.63910939 10.430166,4.65862187 C10.377416,4.67812186 10.3295411,4.70884684 10.2898411,4.74868431 C10.2501411,4.78850928 10.2195661,4.83648425 10.2002287,4.88929671 C10.1808912,4.94209668 10.1732662,4.99847164 10.1778537,5.0545216 C10.1824537,5.11057156 10.1991662,5.16494652 10.2268411,5.21389649 C10.2545161,5.26285896 10.2924911,5.30520893 10.3381536,5.3380464 C10.3838035,5.37087138 10.4360535,5.39339637 10.491266,5.40405886 C10.5464784,5.41470885 10.6033534,5.41324635 10.6579533,5.39975886 C15.2297502,5.58764623 12.4866271,5.76300861 18.6241228,5.22440898 C18.7403727,5.22440898 18.8519977,5.17822151 18.9341226,5.09600907 C19.0163726,5.01378413 19.0624975,4.90228421 19.0624975,4.78600929 C19.0624975,4.66974687 19.0163726,4.55823444 18.9341226,4.476022 C18.8519977,4.39380956 18.7403727,4.34762209 18.6241228,4.34762209 L18.6241228,4.34762209 Z" id="Vector_5" fill="#000000"></path>
                            <path d="M18.6241228,8.41850677 C15.9519997,7.98684457 13.2197516,8.10619449 10.5953284,8.76921903 C10.5443409,8.77333152 10.4946535,8.78744401 10.4491285,8.8107565 C10.403591,8.83406898 10.363091,8.86611896 10.3299411,8.90509393 C10.2967911,8.94405641 10.2716411,8.98916887 10.2559286,9.03784384 C10.2402161,9.08653131 10.2342411,9.13783127 10.2383536,9.18881874 C10.2424661,9.2398187 10.2565786,9.28949367 10.2798911,9.33503114 C10.3032036,9.3805686 10.3352661,9.42106858 10.3742285,9.45421855 C10.413191,9.48735603 10.4583035,9.51250601 10.5069784,9.528231 C10.5556659,9.54394349 10.6069659,9.54990599 10.6579533,9.54579349 C15.2172502,9.72115587 12.4741271,9.89651825 18.6241228,9.35791862 C18.7487477,9.35791862 18.8682477,9.30843115 18.9562476,9.22034371 C19.0443725,9.13225628 19.0938725,9.01278136 19.0938725,8.88820644 C19.0938725,8.76363153 19.0443725,8.64416911 18.9562476,8.55608167 C18.8682477,8.46799424 18.7487477,8.41850677 18.6241228,8.41850677 L18.6241228,8.41850677 Z" id="Vector_6" fill="#000000"></path>
                            <path d="M10.5953284,12.7147413 C10.5392659,12.7102413 10.4829035,12.7181163 10.430166,12.7376163 C10.377416,12.7571163 10.3295411,12.7878662 10.2898411,12.8276162 C10.2501411,12.8674912 10.2195661,12.9154912 10.2002287,12.9682411 C10.1808912,13.0211161 10.1732662,13.077491 10.1778537,13.133491 C10.1824537,13.189616 10.1991662,13.2439909 10.2268411,13.2928659 C10.2545161,13.3418659 10.2924911,13.3842408 10.3381536,13.4169908 C10.3838035,13.4498658 10.4360535,13.4723658 10.491266,13.4831158 C10.5464784,13.4937408 10.6033534,13.4922408 10.6579533,13.4787408 C15.1796252,13.6666156 12.5117521,13.8419905 18.6241228,13.3033659 C18.7403727,13.3033659 18.8519977,13.2572409 18.9341226,13.174991 C19.0163726,13.092741 19.0624975,12.9812411 19.0624975,12.8649912 C19.0624975,12.7487413 19.0163726,12.6372413 18.9341226,12.5549914 C18.8519977,12.472804 18.7403727,12.4266165 18.6241228,12.4266165 C15.9567497,11.9665793 13.2228766,12.0646667 10.5953284,12.7147413 L10.5953284,12.7147413 Z" id="Vector_7" fill="#000000"></path>
                            <path d="M23.3963695,2.63173578 C24.5398687,2.64266077 25.6799929,2.75583569 26.8033672,2.96992304 C26.6781172,12.8901162 26.8033672,8.9571064 27.103867,17.3492381 C27.103867,17.465488 27.1501169,17.5769879 27.2323669,17.6591129 C27.3144918,17.7413628 27.4259917,17.7876128 27.5423667,17.7876128 C27.6586166,17.7876128 27.7701165,17.7413628 27.8523664,17.6591129 C27.9344914,17.5769879 27.9807413,17.465488 27.9807413,17.3492381 C27.9807413,13.9547404 28.3439911,9.93409322 28.1561162,5.58774623 C28.0808663,3.7590225 27.9431164,2.5941608 27.9181164,2.50647336 C27.8929914,2.41879843 27.5047417,1.90524878 26.6654923,1.85514882 C25.8263678,1.80504885 24.9746184,1.85514882 23.3713695,1.85514882 C23.2683696,1.85847381 23.1708697,1.90257378 23.1004947,1.97773623 C23.0299948,2.05289868 22.9922448,2.15298611 22.9956198,2.25597354 C22.9988698,2.35894847 23.0429948,2.4563984 23.1181197,2.52686085 C23.1933697,2.5973358 23.2933696,2.63504828 23.3963695,2.63173578 Z" id="Vector_8" fill="#000000"></path>
                        </g>
                    </g>
                </g>
            </g>
        </g>
    </g>
</svg>